<svg xmlns="http://www.w3.org/2000/svg" viewBox="0 0 24 24" fill="#FFFFFF">
    <path d="M12 12a1.75 1.75 0 1 0 0-3.5 1.75 1.75 0 0 0 0 3.5zm7.33-4.22a5.4 5.4 0 0 0-3.56-1.5 5.56 5.56 0 0 0-5.32 3.91l-.1.35a3.17 3.17 0 0 1 3.32-.9 3.2 3.2 0 0 1 2.45 2.54 5.42 5.42 0 0 0 3.21-4.4zm-14.66 0A5.42 5.42 0 0 0 7.88 12a3.2 3.2 0 0 1 2.45-2.54 3.17 3.17 0 0 1 3.32.9l-.1-.35a5.56 5.56 0 0 0-5.32-3.91 5.4 5.4 0 0 0-3.56 1.5zM12 13.5a1.5 1.5 0 1 1 0-3 1.5 1.5 0 0 1 0 3zm5.66 2.72A5.42 5.42 0 0 0 19.5 12a5.41 5.41 0 0 0-1.84-4.06 3.19 3.19 0 0 1-.95 3.1 3.22 3.22 0 0 1-2.91.83 5.56 5.56 0 0 0 3.86 4.35zm-11.32 0a5.56 5.56 0 0 0 3.86-4.35 3.22 3.22 0 0 1-2.91-.83 3.19 3.19 0 0 1-.95-3.1A5.41 5.41 0 0 0 4.5 12a5.42 5.42 0 0 0 1.84 4.22zM12 24a5.57 5.57 0 0 0 5.43-4.35 3.2 3.2 0 0 1-2.3.6 3.19 3.19 0 0 1-2.48-2.5l-.65.25-.65-.25a3.19 3.19 0 0 1-2.48 2.5 3.2 3.2 0 0 1-2.3-.6A5.57 5.57 0 0 0 12 24z"/>
</svg>
